<svg width="20" height="21" viewBox="0 0 20 21" fill="none" xmlns="http://www.w3.org/2000/svg">
<path d="M12.3568 12.8568C13.0078 12.2057 13.3333 11.4201 13.3333 10.5C13.3333 9.57986 13.0078 8.79427 12.3568 8.14323C11.7057 7.49219 10.9201 7.16667 10 7.16667C9.07986 7.16667 8.29427 7.49219 7.64323 8.14323C6.99219 8.79427 6.66667 9.57986 6.66667 10.5C6.66667 11.4201 6.99219 12.2057 7.64323 12.8568C8.29427 13.5078 9.07986 13.8333 10 13.8333C10.9201 13.8333 11.7057 13.5078 12.3568 12.8568ZM13.6328 6.86719C14.6311 7.86545 15.1302 9.07639 15.1302 10.5C15.1302 11.9236 14.6311 13.1345 13.6328 14.1328C12.6345 15.1311 11.4236 15.6302 10 15.6302C8.57639 15.6302 7.36545 15.1311 6.36719 14.1328C5.36892 13.1345 4.86979 11.9236 4.86979 10.5C4.86979 9.07639 5.36892 7.86545 6.36719 6.86719C7.36545 5.86892 8.57639 5.36979 10 5.36979C11.4236 5.36979 12.6345 5.86892 13.6328 6.86719ZM16.1849 4.3151C16.4193 4.54948 16.5365 4.8316 16.5365 5.16146C16.5365 5.49132 16.4193 5.77344 16.1849 6.00781C15.9505 6.24219 15.6684 6.35938 15.3385 6.35938C15.0087 6.35938 14.7266 6.24219 14.4922 6.00781C14.2578 5.77344 14.1406 5.49132 14.1406 5.16146C14.1406 4.8316 14.2578 4.54948 14.4922 4.3151C14.7266 4.08073 15.0087 3.96354 15.3385 3.96354C15.6684 3.96354 15.9505 4.08073 16.1849 4.3151ZM10.9896 2.29688C10.3906 2.29688 10.0608 2.29688 10 2.29688C9.93924 2.29688 9.60503 2.29688 8.9974 2.29688C8.39844 2.28819 7.94271 2.28819 7.63021 2.29688C7.31771 2.29688 6.8967 2.3099 6.36719 2.33594C5.84635 2.3533 5.39931 2.3967 5.02604 2.46615C4.66146 2.52691 4.3533 2.60503 4.10156 2.70052C3.66753 2.87413 3.28559 3.12587 2.95573 3.45573C2.62587 3.78559 2.37413 4.16754 2.20052 4.60156C2.10503 4.8533 2.02257 5.1658 1.95312 5.53906C1.89236 5.90365 1.84896 6.3507 1.82292 6.88021C1.80556 7.40104 1.79253 7.81771 1.78385 8.13021C1.78385 8.44271 1.78385 8.90278 1.78385 9.51042C1.79253 10.1094 1.79688 10.4392 1.79688 10.5C1.79688 10.5608 1.79253 10.895 1.78385 11.5026C1.78385 12.1016 1.78385 12.5573 1.78385 12.8698C1.79253 13.1823 1.80556 13.6033 1.82292 14.1328C1.84896 14.6536 1.89236 15.1007 1.95312 15.474C2.02257 15.8385 2.10503 16.1467 2.20052 16.3984C2.37413 16.8325 2.62587 17.2144 2.95573 17.5443C3.28559 17.8741 3.66753 18.1259 4.10156 18.2995C4.3533 18.395 4.66146 18.4774 5.02604 18.5469C5.39931 18.6076 5.84635 18.651 6.36719 18.6771C6.8967 18.6944 7.31771 18.7075 7.63021 18.7161C7.94271 18.7161 8.39844 18.7161 8.9974 18.7161C9.60503 18.7075 9.93924 18.7031 10 18.7031C10.0608 18.7031 10.3906 18.7075 10.9896 18.7161C11.5972 18.7161 12.0573 18.7161 12.3698 18.7161C12.6823 18.7075 13.099 18.6944 13.6198 18.6771C14.1493 18.651 14.5964 18.6076 14.9609 18.5469C15.3342 18.4774 15.6467 18.395 15.8984 18.2995C16.3325 18.1259 16.7144 17.8741 17.0443 17.5443C17.3741 17.2144 17.6259 16.8325 17.7995 16.3984C17.895 16.1467 17.9731 15.8385 18.0339 15.474C18.1033 15.1007 18.1467 14.6536 18.1641 14.1328C18.1901 13.6033 18.2031 13.1823 18.2031 12.8698C18.2118 12.5573 18.2118 12.1016 18.2031 11.5026C18.2031 10.895 18.2031 10.5608 18.2031 10.5C18.2031 10.4392 18.2031 10.1094 18.2031 9.51042C18.2118 8.90278 18.2118 8.44271 18.2031 8.13021C18.2031 7.81771 18.1901 7.40104 18.1641 6.88021C18.1467 6.3507 18.1033 5.90365 18.0339 5.53906C17.9731 5.1658 17.895 4.8533 17.7995 4.60156C17.6259 4.16754 17.3741 3.78559 17.0443 3.45573C16.7144 3.12587 16.3325 2.87413 15.8984 2.70052C15.6467 2.60503 15.3342 2.52691 14.9609 2.46615C14.5964 2.3967 14.1493 2.3533 13.6198 2.33594C13.099 2.3099 12.6823 2.29688 12.3698 2.29688C12.0573 2.28819 11.5972 2.28819 10.9896 2.29688ZM19.9349 6.3724C19.9783 7.13629 20 8.51215 20 10.5C20 12.4878 19.9783 13.8637 19.9349 14.6276C19.8481 16.4332 19.3099 17.8307 18.3203 18.8203C17.3307 19.8099 15.9332 20.3481 14.1276 20.4349C13.3637 20.4783 11.9878 20.5 10 20.5C8.01215 20.5 6.63628 20.4783 5.8724 20.4349C4.06684 20.3481 2.66927 19.8099 1.67969 18.8203C0.690104 17.8307 0.15191 16.4332 0.0651042 14.6276C0.0217014 13.8637 0 12.4878 0 10.5C0 8.51215 0.0217014 7.13629 0.0651042 6.3724C0.15191 4.56684 0.690104 3.16927 1.67969 2.17969C2.66927 1.1901 4.06684 0.65191 5.8724 0.565105C6.63628 0.521702 8.01215 0.5 10 0.5C11.9878 0.5 13.3637 0.521702 14.1276 0.565105C15.9332 0.65191 17.3307 1.1901 18.3203 2.17969C19.3099 3.16927 19.8481 4.56684 19.9349 6.3724Z" fill="white"/>
</svg>
