<svg width="25" height="21" viewBox="0 0 25 21" fill="none" xmlns="http://www.w3.org/2000/svg">
<path fill-rule="evenodd" clip-rule="evenodd" d="M2.15905 9.10986L15.1186 3.52763C21.29 0.960736 22.5723 0.514869 23.4082 0.500158C23.592 0.496913 24.003 0.542468 24.2693 0.758513C24.4942 0.940913 24.5559 1.1874 24.5856 1.36029C24.6152 1.53318 24.652 1.92727 24.6227 2.23514C24.2883 5.74892 22.8412 14.2762 22.105 18.2118C21.7935 19.8771 21.1806 20.4355 20.5864 20.4901C19.2959 20.6088 18.3159 19.6372 17.066 18.8179L12.1067 15.4867C9.91267 14.0409 11.335 13.2462 12.5854 11.9475C12.9126 11.6075 18.5985 6.43581 18.7085 5.96665C18.7218 5.90799 18.735 5.68932 18.6051 5.57376C18.4752 5.45821 18.2833 5.49821 18.145 5.52919C17.9489 5.57372 14.8244 7.63888 8.77155 11.7247C7.88467 12.3338 7.08133 12.6305 6.36164 12.615C5.56817 12.5978 4.0419 12.1663 2.90728 11.7975C1.51559 11.3451 0.409496 11.1059 0.505851 10.3377C0.555985 9.93755 1.10705 9.52835 2.15901 9.10994L2.15905 9.10986Z" fill="white"/>
</svg>
