<svg width="26" height="16" viewBox="0 0 26 16" fill="none" xmlns="http://www.w3.org/2000/svg">
<path d="M25.4649 1.89878C25.6645 2.45414 25.0136 3.72971 23.5124 5.72551C23.3042 6.00319 23.0222 6.37198 22.6664 6.83188C22.3193 7.27443 22.0807 7.58682 21.9505 7.76904C21.8204 7.95127 21.6859 8.1682 21.547 8.41984C21.4169 8.66281 21.3648 8.84504 21.3908 8.96652C21.4255 9.07933 21.4819 9.22684 21.56 9.40907C21.6468 9.59129 21.79 9.77786 21.9896 9.96876C22.1892 10.1597 22.4365 10.3896 22.7315 10.6586C22.7662 10.676 22.7879 10.6933 22.7966 10.7107C24.0201 11.8474 24.8488 12.8063 25.2826 13.5872C25.3087 13.6306 25.3347 13.687 25.3607 13.7564C25.3954 13.8172 25.4258 13.93 25.4519 14.0949C25.4866 14.2597 25.4866 14.4072 25.4519 14.5374C25.4171 14.6676 25.3087 14.7891 25.1264 14.9019C24.9442 15.006 24.6882 15.0581 24.3585 15.0581L21.0264 15.1101C20.8181 15.1535 20.5752 15.1318 20.2975 15.045C20.0198 14.9583 19.7942 14.8628 19.6206 14.7587L19.3603 14.6025C19.1 14.4203 18.7963 14.1426 18.4492 13.7695C18.1021 13.3963 17.8027 13.0623 17.5511 12.7672C17.3081 12.4635 17.0435 12.2119 16.7571 12.0123C16.4794 11.804 16.2365 11.7346 16.0282 11.804C16.0022 11.8127 15.9675 11.8301 15.9241 11.8561C15.8807 11.8734 15.8069 11.9342 15.7028 12.0383C15.5987 12.1424 15.5032 12.2726 15.4164 12.4288C15.3383 12.5763 15.2646 12.8019 15.1952 13.1056C15.1344 13.4007 15.1084 13.7348 15.1171 14.1079C15.1171 14.238 15.0997 14.3595 15.065 14.4723C15.039 14.5765 15.0086 14.6546 14.9739 14.7066L14.9218 14.7717C14.7656 14.9366 14.5357 15.032 14.232 15.0581H12.7351C12.119 15.0928 11.4856 15.0233 10.8348 14.8498C10.184 14.6676 9.61126 14.4376 9.11665 14.1599C8.63072 13.8736 8.18384 13.5872 7.776 13.3009C7.37684 13.0058 7.07313 12.7542 6.86487 12.5459L6.53947 12.2336C6.45269 12.1468 6.33121 12.0166 6.17501 11.8431C6.0275 11.6695 5.71946 11.2747 5.25088 10.6586C4.7823 10.0425 4.32239 9.38737 3.87117 8.69318C3.41994 7.99899 2.88629 7.08353 2.27019 5.94679C1.66277 4.81005 1.09874 3.62992 0.578101 2.40641C0.526036 2.26757 0.5 2.15043 0.5 2.05498C0.5 1.95952 0.513018 1.89011 0.53905 1.84672L0.591113 1.76862C0.721274 1.60375 0.968579 1.52132 1.33303 1.52132L4.89944 1.49528C5.00357 1.51264 5.10336 1.54301 5.19881 1.5864C5.29426 1.62111 5.36368 1.65582 5.40707 1.69053L5.47214 1.72957C5.61098 1.82503 5.71512 1.96386 5.78454 2.14609C5.95809 2.57996 6.15766 3.03118 6.38327 3.49976C6.60888 3.95966 6.78677 4.3111 6.91693 4.55407L7.12519 4.93153C7.37684 5.45218 7.6198 5.9034 7.85409 6.28521C8.08838 6.66701 8.29664 6.96638 8.47886 7.18332C8.66976 7.39157 8.85199 7.55645 9.02554 7.67793C9.19909 7.79941 9.34661 7.86015 9.46809 7.86015C9.58957 7.86015 9.70671 7.83846 9.81952 7.79507C9.83687 7.7864 9.85858 7.7647 9.88461 7.72999C9.91064 7.69528 9.9627 7.59983 10.0408 7.44364C10.1189 7.28745 10.1753 7.08353 10.21 6.83188C10.2534 6.58024 10.2968 6.2288 10.3402 5.77758C10.3836 5.32635 10.3836 4.78402 10.3402 4.15057C10.3228 3.80347 10.2838 3.48675 10.223 3.20039C10.1623 2.91404 10.1015 2.71446 10.0408 2.60165L9.9627 2.44546C9.74577 2.15043 9.37698 1.96386 8.85633 1.88577C8.74353 1.86841 8.76522 1.76428 8.92141 1.57338C9.06025 1.40851 9.22512 1.27835 9.41603 1.1829C9.87593 0.957286 10.9129 0.853157 12.5269 0.870512C13.2384 0.879189 13.8241 0.935592 14.284 1.03972C14.4576 1.08311 14.6008 1.14385 14.7136 1.22195C14.8351 1.29137 14.9262 1.39549 14.9869 1.53433C15.0477 1.66449 15.091 1.80333 15.1171 1.95085C15.1518 2.08969 15.1691 2.28493 15.1691 2.53657C15.1691 2.78822 15.1648 3.02685 15.1561 3.25246C15.1474 3.47807 15.1344 3.78612 15.1171 4.1766C15.1084 4.55841 15.1041 4.91418 15.1041 5.24392C15.1041 5.33937 15.0997 5.5216 15.091 5.79059C15.0824 6.05959 15.078 6.26785 15.078 6.41537C15.0867 6.56288 15.1041 6.74077 15.1301 6.94903C15.1561 7.14861 15.2038 7.31782 15.2733 7.45666C15.3514 7.58682 15.4512 7.69094 15.5726 7.76904C15.6421 7.7864 15.7158 7.80375 15.7939 7.82111C15.872 7.83846 15.9848 7.79073 16.1323 7.67793C16.2798 7.56512 16.4447 7.41761 16.6269 7.23538C16.8092 7.04448 17.0348 6.75379 17.3038 6.3633C17.5728 5.96414 17.8678 5.49556 18.1889 4.95756C18.7095 4.05512 19.1737 3.07891 19.5816 2.02894C19.6163 1.94217 19.6597 1.86841 19.7118 1.80767C19.7638 1.73825 19.8115 1.69053 19.8549 1.66449L19.907 1.62544C19.9244 1.61677 19.946 1.60809 19.9721 1.59941C19.9981 1.58206 20.0545 1.56904 20.1413 1.56036C20.2281 1.54301 20.3148 1.53867 20.4016 1.54735L24.1502 1.52132C24.4887 1.47793 24.7663 1.49095 24.9833 1.56036C25.2002 1.62111 25.3347 1.69053 25.3868 1.76862L25.4649 1.89878Z" fill="white"/>
</svg>
